<svg id="Layer_1" data-name="Layer 1" xmlns="http://www.w3.org/2000/svg" viewBox="0 0 900 600"><defs><style>.cls-1{fill:#fff;}</style></defs><path class="cls-1" d="M195.65,588.05V460.58a141.53,141.53,0,0,1-16.55-1.71V427.41a40.5,40.5,0,0,0,28.38-15.7h28.35V588.05Z"/><path d="M245.57,567.58l.54-533.45H364.6c-6.38,138.46-15.15,291.13-26.25,379.1h2.23c36-111.43,85.93-251.6,128-379.1H573.94c-1.92,103.6-3.39,259.37-9.73,373.14h2.24C589.59,321.65,654.81,113,677.38,34.13H796L601.19,567.58H479.28c2.23-108.34-.57-240.52,4.07-334.48h-1.79c-28.33,95.81-79.94,234.34-113.85,334.48Z"/><path d="M183.58,567.58V181.83c-17.5-.57-48.14-3.3-58.46-5.2V81.44c41.42-2.7,78.5-22.9,100.23-47.51H325.47V567.58Z"/><path class="cls-1" d="M328.19,489.82c0,25-16.52,47.21-50.27,47.21-31.54,0-49.14-20.65-49.14-46.7s18-46.7,50.38-46.7C309.32,443.63,328.19,462.83,328.19,489.82Zm-84.54.12c0,19.62,11.86,36.82,34.89,36.82,24.87,0,34.78-17.37,34.78-36.77,0-19.56-11.23-36.09-34.74-36.09C254.29,453.9,243.65,470.57,243.65,489.94Z"/><polyline class="cls-1" points="310.64 462.49 319.28 472.1 319.28 480.26 321.68 491.3 321.68 498.99 318.32 508.59 310.64 519.15 301.04 527.32 289.03 530.68 275.59 532.6 263.1 530.2 258.3 527.8 249.18 522.51 243.41 515.79"/></svg>