<svg id="Layer_1" data-name="Layer 1" xmlns="http://www.w3.org/2000/svg" viewBox="0 0 900 600"><defs><style>.cls-1{fill:#fff;}</style></defs><path d="M289.32,572.47l.55-549.8H412c-6.57,142.71-15.61,300.05-27.05,390.71h2.3c37.13-114.84,88.56-259.3,131.94-390.71H627.75c-2,106.77-3.49,267.32-10,384.57H620C643.88,319,711.1,103.91,734.36,22.67h122.3L655.83,572.47H530.18c2.31-111.66-.57-247.9,4.2-344.73h-1.84c-29.2,98.74-82.4,241.52-117.34,344.73Z"/><path d="M82.92,572.47v-5.79c0-101.8,32-179.94,126.4-268.3,52-49.27,72.12-72,72.12-115.24,0-36.37-12.81-59.11-41.22-59.11-32.1,0-44.78,28.93-47.41,83.38h-112c2.67-82.08,34.68-185.2,165.56-185.2,103.86,0,157.28,70.95,157.28,163.22,0,67.36-18.59,109.69-98.5,178.36-39,33.61-66.75,65.66-77.38,96H414L399.71,572.47Z"/><ellipse cx="277.13" cy="420.64" rx="57.36" ry="69.98"/><path class="cls-1" d="M305.49,442.51c0,25.73-17,48.66-51.81,48.66C221.17,491.17,203,469.88,203,443s18.51-48.13,51.92-48.13C286.05,394.91,305.49,414.69,305.49,442.51Zm-87.12.12c0,20.23,12.21,38,35.95,38,25.64,0,35.84-17.91,35.84-37.9,0-20.16-11.57-37.2-35.8-37.2C229.33,405.49,218.37,422.67,218.37,442.63Z"/><polyline class="cls-1" points="287.4 414.35 296.31 424.25 296.31 432.66 298.79 444.04 298.79 451.96 295.32 461.86 287.4 472.75 277.5 481.16 265.13 484.62 251.28 486.6 238.41 484.13 233.46 481.65 224.06 476.21 218.12 469.28"/><rect x="233.91" y="22.67" width="75.91" height="17.34"/></svg>