<svg id="Layer_1" data-name="Layer 1" xmlns="http://www.w3.org/2000/svg" viewBox="0 0 900 600"><defs><style>.cls-1{fill:#fff;}</style></defs><path d="M294.56,580.6l.56-555.11H418.41c-6.63,144.08-15.76,303-27.31,394.49h2.33c37.48-116,89.41-261.81,133.21-394.49H636.26c-2,107.8-3.53,269.9-10.13,388.29h2.33c24.08-89.1,92-306.27,115.44-388.29H867.38L664.61,580.6H537.75c2.33-112.74-.58-250.29,4.23-348.06h-1.85c-29.48,99.7-83.19,243.85-118.48,348.06Z"/><path d="M49.44,184.09c5.11-71.37,39.69-159.56,163.9-159.56,105.54,0,158.4,62.23,158.4,147.15,0,62.23-34.19,94.38-62.09,106.78v1.91c32.87,13.45,77.9,46.32,77.9,131.82,0,83.76-45.12,169-174.92,169-124.65,0-165.84-81.23-171-162.94H160c4,35.92,16.06,64.49,52.87,64.49,33,0,48.44-25.9,48.44-71.41,0-51.52-18.35-72.71-63.42-72.71H161.25V237.71h32.08c39.45,0,57-13.83,57-58.82,0-37.4-12.8-56.68-42.05-56.68-30,0-43.2,20.38-46.76,61.88Z"/><rect x="197.04" y="25.44" width="153.85" height="35.15"/><rect x="203.69" y="545.38" width="153.85" height="35.15"/><path class="cls-1" d="M365.13,284.86c0,25.74-17,48.66-51.82,48.66-32.5,0-50.64-21.29-50.64-48.13s18.51-48.13,51.92-48.13C345.68,237.26,365.13,257,365.13,284.86ZM278,285c0,20.22,12.21,37.95,35.95,37.95,25.64,0,35.84-17.9,35.84-37.9,0-20.16-11.56-37.2-35.8-37.2C289,247.84,278,265,278,285Z"/><polyline class="cls-1" points="347.04 256.7 355.94 266.6 355.94 275.01 358.42 286.4 358.42 294.31 354.95 304.21 347.04 315.1 337.14 323.51 324.76 326.98 310.91 328.96 298.04 326.48 293.09 324.01 283.69 318.56 277.75 311.64"/></svg>