<svg xmlns="http://www.w3.org/2000/svg" viewBox="0 0 591.08 673.49"><defs><style>.cls-1{fill:#d0edf1;}</style></defs><g id="Layer_2" data-name="Layer 2"><g id="Layer_1-2" data-name="Layer 1"><path class="cls-1" d="M1192.13,129.56h196.56c106.33,0,145.9,66.58,145.9,136.62,0,62.66-28.19,94.27-57.87,108.37,34.12,16.05,72.25,53.87,72.25,126.68C1549,598.87,1489.3,663,1385.65,663H1192.13ZM1360.94,336c38.59,0,55.2-15.35,55.2-53.78,0-37.65-20.49-54.29-52.49-54.29h-53.14V336Zm-50.43,229.18h54.4c32.51,0,58.85-17.71,58.85-66.39,0-44.43-20.33-67.13-63.92-67.13h-49.33Z" transform="translate(-957.9 -129.56)"/><path class="cls-1" d="M1149.09,458.1c-47,0-62.24,16.75-62.24,72.48v15.08c0,61.21-2.17,95.3-8.63,117.35H961.09c3.69-26,5.14-72.65,5.14-117.2V529.36c0-61.38,13.74-106.5,59.79-127.81-38-18.19-68.12-54.07-68.12-125.75,0-84.65,53.06-146.24,150.26-146.24H1310.1V663H1191.27V458.1Zm42.18-224.38h-59c-31,0-54.17,16.13-54.17,57.91,0,45.19,25.64,61.76,61.91,61.76h51.3Z" transform="translate(-957.9 -129.56)"/><path class="cls-1" d="M1303.91,755.84c0,25-16.53,47.21-50.28,47.21-31.54,0-49.14-20.66-49.14-46.7s18-46.7,50.38-46.7C1285,709.65,1303.91,728.85,1303.91,755.84Zm-84.54.12c0,19.62,11.85,36.82,34.89,36.82,24.87,0,34.77-17.37,34.77-36.77,0-19.56-11.22-36.09-34.74-36.09C1230,719.92,1219.37,736.59,1219.37,756Z" transform="translate(-957.9 -129.56)"/><polyline class="cls-1" points="328.45 598.95 337.1 608.56 337.1 616.72 339.5 627.76 339.5 635.45 336.14 645.05 328.45 655.61 318.85 663.78 306.85 667.14 293.4 669.06 280.92 666.66 276.12 664.26 266.99 658.97 261.23 652.25"/></g></g></svg>