<svg xmlns="http://www.w3.org/2000/svg" viewBox="0 0 825.78 556.62"><defs><style>.cls-1{fill:#fff;}</style></defs><g id="Layer_2" data-name="Layer 2"><g id="Layer_1-2" data-name="Layer 1"><path d="M496.48,698.63,497,143.52h123.3C613.7,287.6,604.58,446.47,593,538h2.33c37.48-116,89.41-261.81,133.2-394.49H838.19c-2,107.8-3.53,269.9-10.13,388.29h2.33c24.08-89.1,92-306.27,115.44-388.29h123.48L866.54,698.63H739.68c2.33-112.74-.59-250.29,4.23-348.06h-1.85c-29.48,99.7-83.19,243.85-118.48,348.06Z" transform="translate(-243.53 -142.56)"/><path d="M251.37,302.12c5.11-71.37,39.69-159.56,163.9-159.56,105.54,0,158.4,62.23,158.4,147.16,0,62.22-34.19,94.37-62.09,106.77v1.91c32.87,13.45,77.89,46.32,77.89,131.82,0,83.76-45.12,169-174.91,169-124.65,0-165.85-81.23-171-162.94H361.94c4,35.92,16.06,64.49,52.87,64.49,33,0,48.44-25.9,48.44-71.41,0-51.52-18.35-72.71-63.42-72.71H363.18V355.74h32.08c39.45,0,57-13.83,57-58.81,0-37.41-12.81-56.69-42.05-56.69-30,0-43.2,20.38-46.77,61.88Z" transform="translate(-243.53 -142.56)"/><rect x="155.44" y="0.91" width="153.85" height="35.15"/><rect x="162.08" y="520.85" width="153.85" height="35.15"/><path class="cls-1" d="M567.05,402.89c0,25.74-17,48.66-51.81,48.66-32.51,0-50.64-21.29-50.64-48.13s18.51-48.13,51.92-48.13C547.61,355.29,567.05,375.08,567.05,402.89Zm-87.12.13c0,20.22,12.21,38,35.95,38,25.64,0,35.84-17.9,35.84-37.89,0-20.16-11.57-37.21-35.8-37.21C490.89,365.87,479.93,383.06,479.93,403Z" transform="translate(-243.53 -142.56)"/><polyline class="cls-1" points="305.43 232.18 314.34 242.07 314.34 250.49 316.81 261.87 316.81 269.79 313.35 279.69 305.43 290.57 295.53 298.99 283.16 302.45 269.3 304.43 256.44 301.95 251.49 299.48 242.09 294.04 236.15 287.11"/></g></g></svg>